<?xml version="1.0" encoding="UTF-8" standalone="no"?>
<svg
   xmlns:dc="http://purl.org/dc/elements/1.1/"
   xmlns:cc="http://creativecommons.org/ns#"
   xmlns:rdf="http://www.w3.org/1999/02/22-rdf-syntax-ns#"
   xmlns:svg="http://www.w3.org/2000/svg"
   xmlns="http://www.w3.org/2000/svg"
   xmlns:sodipodi="http://sodipodi.sourceforge.net/DTD/sodipodi-0.dtd"
   xmlns:inkscape="http://www.inkscape.org/namespaces/inkscape"
   xml:space="preserve"
   version="1.1"
   style="clip-rule:evenodd;fill-rule:evenodd;image-rendering:optimizeQuality;shape-rendering:geometricPrecision;text-rendering:geometricPrecision"
   viewBox="0 0 718 700"
   x="0px"
   y="0px"
   id="svg14"
   sodipodi:docname="noun_Bus_2491103.svg"
   inkscape:version="0.92.2 5c3e80d, 2017-08-06"
   width="718"
   height="700"><metadata
     id="metadata18"><rdf:RDF><cc:Work
         rdf:about=""><dc:format>image/svg+xml</dc:format><dc:type
           rdf:resource="http://purl.org/dc/dcmitype/StillImage" /><dc:title></dc:title></cc:Work></rdf:RDF></metadata><sodipodi:namedview
     pagecolor="#ffffff"
     bordercolor="#666666"
     borderopacity="1"
     objecttolerance="10"
     gridtolerance="10"
     guidetolerance="10"
     inkscape:pageopacity="0"
     inkscape:pageshadow="2"
     inkscape:window-width="740"
     inkscape:window-height="480"
     id="namedview16"
     showgrid="false"
     inkscape:zoom="0.26971429"
     inkscape:cx="359"
     inkscape:cy="262.5"
     inkscape:window-x="0"
     inkscape:window-y="0"
     inkscape:window-maximized="0"
     inkscape:current-layer="svg14"
     fit-margin-top="0"
     fit-margin-left="0"
     fit-margin-right="0"
     fit-margin-bottom="0" /><defs
     id="defs4"><style
       type="text/css"
       id="style2">
   
    .fil0 {fill:black}
   
  </style></defs><g
     id="g8"
     style="fill:#cce8cc;fill-opacity:1"><path
       class="fil0"
       d="M 110,652 C 93,652 84,647 84,634 V 184 H 34 v 29 h 11 c 7,0 11,4 11,10 v 108 c 0,5 -4,10 -11,10 H 11 C 5,341 0,336 0,331 V 223 c 0,-6 5,-10 11,-10 H 23 V 174 H 84 V 63 c -10,-84 563,-84 553,0 v 111 h 59 v 39 h 12 c 6,0 10,4 10,10 v 108 c 0,5 -4,10 -10,10 h -35 c -7,0 -11,-5 -11,-10 V 223 c 0,-6 4,-10 11,-10 h 11 v -29 h -47 v 450 c 0,13 -9,18 -25,18 v 26 c 0,12 -9,22 -21,22 h -31 c -13,0 -24,-11 -24,-24 V 652 H 186 v 26 c 0,12 -10,22 -22,22 h -31 c -12,0 -23,-11 -23,-24 z M 607,529 h -27 c -6,0 -6,10 0,10 h 27 c 6,0 6,-10 0,-10 z m -61,17 c -9,0 -17,8 -17,17 0,9 8,16 17,16 9,0 16,-7 16,-16 0,-9 -7,-17 -16,-17 z m 48,0 c -9,0 -16,8 -16,17 0,9 7,16 16,16 9,0 17,-7 17,-16 0,-9 -8,-17 -17,-17 z M 114,529 h 27 c 6,0 6,10 0,10 h -27 c -6,0 -6,-10 0,-10 z m 61,17 c 9,0 17,8 17,17 0,9 -8,16 -17,16 -9,0 -16,-7 -16,-16 0,-9 7,-17 16,-17 z m -48,0 c 9,0 17,8 17,17 0,9 -8,16 -17,16 -9,0 -16,-7 -16,-16 0,-9 7,-17 16,-17 z m 124,57 h 216 v 31 H 251 Z m 264,-56 c -3,12 -3,25 0,39 h 103 v -32 -37 c 1,-7 -2,-10 -15,-4 z m -308,0 c 3,12 3,25 0,39 H 104 v -32 -37 c -1,-7 1,-10 15,-4 z M 91,458 c -5,83 543,83 539,0 0,-103 0,-225 0,-308 0,-14 -9,-21 -24,-21 H 114 c -15,0 -23,7 -23,21 z M 229,47 h 263 c 6,0 10,5 10,11 v 21 c 0,5 -4,10 -10,10 H 229 c -5,0 -10,-5 -10,-10 V 58 c 0,-6 5,-11 10,-11 z"
       id="path6"
       style="fill:#cce8cc;fill-opacity:1"
       inkscape:connector-curvature="0" /></g></svg>