<?xml version="1.0" encoding="UTF-8" standalone="no"?>
<!-- Created with Inkscape (http://www.inkscape.org/) -->

<svg
   xmlns:dc="http://purl.org/dc/elements/1.1/"
   xmlns:cc="http://creativecommons.org/ns#"
   xmlns:rdf="http://www.w3.org/1999/02/22-rdf-syntax-ns#"
   xmlns:svg="http://www.w3.org/2000/svg"
   xmlns="http://www.w3.org/2000/svg"
   xmlns:xlink="http://www.w3.org/1999/xlink"
   xmlns:sodipodi="http://sodipodi.sourceforge.net/DTD/sodipodi-0.dtd"
   xmlns:inkscape="http://www.inkscape.org/namespaces/inkscape"
   width="267.79892mm"
   height="50.37677mm"
   viewBox="0 0 267.79892 50.37677"
   version="1.1"
   id="svg904"
   sodipodi:docname="title-underline.svg"
   inkscape:version="0.92.2 5c3e80d, 2017-08-06">
  <defs
     id="defs898">
    <linearGradient
       inkscape:collect="always"
       id="linearGradient1562">
      <stop
         id="stop1560"
         offset="0"
         style="stop-color:#cce8cc;stop-opacity:1" />
      <stop
         id="stop1558"
         offset="1"
         style="stop-color:#eaadad;stop-opacity:1" />
    </linearGradient>
    <linearGradient
       inkscape:collect="always"
       xlink:href="#linearGradient1562"
       id="linearGradient1564"
       x1="-1.5043849"
       y1="19.4705"
       x2="751.94138"
       y2="19.4705"
       gradientUnits="userSpaceOnUse" />
  </defs>
  <sodipodi:namedview
     id="base"
     pagecolor="#ffffff"
     bordercolor="#666666"
     borderopacity="1.0"
     inkscape:pageopacity="0.0"
     inkscape:pageshadow="2"
     inkscape:zoom="0.35"
     inkscape:cx="314.64813"
     inkscape:cy="7.3202643"
     inkscape:document-units="mm"
     inkscape:current-layer="layer1"
     showgrid="false"
     fit-margin-top="1"
     fit-margin-left="1"
     fit-margin-right="1"
     fit-margin-bottom="1"
     inkscape:window-width="1280"
     inkscape:window-height="755"
     inkscape:window-x="1"
     inkscape:window-y="0"
     inkscape:window-maximized="0" />
  <metadata
     id="metadata901">
    <rdf:RDF>
      <cc:Work
         rdf:about="">
        <dc:format>image/svg+xml</dc:format>
        <dc:type
           rdf:resource="http://purl.org/dc/dcmitype/StillImage" />
        <dc:title></dc:title>
      </cc:Work>
    </rdf:RDF>
  </metadata>
  <g
     inkscape:label="Layer 1"
     inkscape:groupmode="layer"
     id="layer1"
     transform="translate(-7.463635,-7.9842314)">
    <g
       id="g66"
       transform="matrix(-0.35277777,0,0,0.35277777,273.73184,26.303856)"
       style="stroke:url(#linearGradient1564)">
      <path
         d="m 0,0 c 6.8,33.377 51.922,40.795 148.966,-25.343 97.045,-66.138 112.971,37.087 87.772,37.087 -25.197,0 -15.454,-59.339 35.851,-59.339 51.305,0 77.882,87.772 55.013,87.772 -22.87,0 -27.198,-78.5 21.014,-78.5 48.213,0 69.99,124.859 26.625,124.859 -43.365,0 -21.634,-124.859 26.578,-124.859 48.213,0 43.885,78.5 21.016,78.5 -22.869,0 3.708,-87.772 55.013,-87.772 51.304,0 61.048,59.339 35.849,59.339 -25.198,0 -9.271,-103.225 87.773,-37.087 C 698.515,40.795 743.637,33.377 750.437,0"
         style="fill:none;stroke:url(#linearGradient1564);stroke-width:3;stroke-linecap:round;stroke-linejoin:round;stroke-miterlimit:10;stroke-dasharray:none;stroke-opacity:1"
         id="path68"
         inkscape:connector-curvature="0" />
    </g>
  </g>
</svg>
